<svg width="45" height="45" viewBox="0 0 45 45" fill="none" xmlns="http://www.w3.org/2000/svg">
<circle cx="22.5" cy="22.5" r="22.5" fill="#EBFDFF"/>
<g clip-path="url(#clip0)">
<path d="M35.5224 26.1929C36.0549 26.0501 36.3719 25.5008 36.2292 24.9683L35.6445 22.7876C33.7972 22.642 32.1535 21.3551 31.6469 19.4657C31.1404 17.5768 31.92 15.6405 33.4467 14.5904L32.862 12.4098C32.7193 11.8773 32.1699 11.5602 31.6374 11.703L9.41903 17.6601C8.88653 17.8029 8.56945 18.3522 8.71222 18.8847L9.29695 21.0656C11.1439 21.2115 12.787 22.4979 13.2934 24.3866C13.7999 26.2757 13.0208 28.2119 11.4946 29.2623L12.0794 31.4432C12.2221 31.9757 12.7715 32.2928 13.304 32.15L35.5224 26.1929ZM36.0404 28.1249L13.822 34.082C12.2242 34.5104 10.5757 33.559 10.1474 31.9612L9.09817 28.048C9.26157 28.0385 9.42798 28.0118 9.59375 27.9673C10.9255 27.6103 11.7185 26.2363 11.3614 24.9046C11.0045 23.5734 9.63064 22.7808 8.29888 23.1378C8.13818 23.1809 7.98015 23.2406 7.82917 23.315L6.78022 19.4027C6.35183 17.8049 7.30322 16.1565 8.90103 15.7281L31.1194 9.77098C32.7172 9.34259 34.3656 10.294 34.794 11.8918L35.8431 15.8046C35.678 15.8149 35.5113 15.8418 35.3468 15.8859C34.015 16.2429 33.222 17.6165 33.5789 18.9477C33.936 20.2795 35.3099 21.0724 36.6417 20.7154C36.8043 20.6718 36.9626 20.6119 37.1121 20.5374L38.1612 24.4503C38.5896 26.0481 37.6382 27.6965 36.0404 28.1249Z" fill="#0030AA"/>
<path d="M25.9355 11.6785L30.5975 29.0665" stroke="#0030AA" stroke-width="2" stroke-dasharray="2 2"/>
<path d="M20.7716 26.5072C22.9056 25.9351 24.1717 23.7413 23.5996 21.6072C23.0274 19.4732 20.8336 18.2071 18.6996 18.7792C16.5655 19.3514 15.2994 21.5452 15.8716 23.6792C16.4437 25.8133 18.6375 27.0794 20.7716 26.5072Z" fill="#00D4FF"/>
</g>
<defs>
<clipPath id="clip0">
<rect x="6" y="9" width="32.929" height="25.858" fill="white"/>
</clipPath>
</defs>
</svg>
