<svg width="45" height="45" viewBox="0 0 45 45" fill="none" xmlns="http://www.w3.org/2000/svg">
<circle cx="22.5" cy="22.5" r="22.5" fill="#EBFDFF"/>
<path d="M10.1675 20.1953C11.1315 15.0584 16.2116 11 22.5 11C28.7884 11 33.8685 15.0584 34.8325 20.1953C34.8705 20.3975 34.8116 20.5772 34.671 20.7262C34.522 20.8841 34.2818 21 34 21H22.5H11C10.7182 21 10.478 20.8841 10.329 20.7262C10.1884 20.5772 10.1295 20.3976 10.1675 20.1953Z" stroke="#0030AA" stroke-width="2"/>
<path d="M11.1779 28.7698C11.4032 29.7724 11.8295 30.4949 12.399 31.0388C12.9779 31.5917 13.7535 32.0061 14.7397 32.3068C16.7489 32.9193 19.4079 33 22.5 33C25.5921 33 28.2511 32.9193 30.2603 32.3068C31.2465 32.0061 32.0221 31.5917 32.601 31.0388C33.1705 30.4949 33.5968 29.7724 33.8221 28.7699C33.8628 28.5888 33.8147 28.4233 33.6762 28.2762C33.5269 28.1179 33.2819 28 33 28H22.5H12C11.7181 28 11.4731 28.1179 11.3238 28.2762C11.1853 28.4233 11.1372 28.5888 11.1779 28.7698Z" stroke="#0030AA" stroke-width="2"/>
<rect x="11" y="23" width="23" height="3" rx="1.5" fill="#00D4FF"/>
</svg>
