<svg width="45" height="45" viewBox="0 0 45 45" fill="none" xmlns="http://www.w3.org/2000/svg">
<circle cx="22.5" cy="22.5" r="22.5" fill="#EBFDFF"/>
<path d="M34 22.1403C34 28.2656 28.879 33.2807 22.5 33.2807C20.6941 33.2807 18.9887 32.8781 17.4716 32.1622C17.063 31.9695 16.6269 32.0051 16.3512 32.0476C16.0385 32.0958 15.7041 32.1929 15.3822 32.3032C14.7946 32.5044 14.1152 32.7975 13.4786 33.0722C13.4188 33.0979 13.3594 33.1236 13.3005 33.1489C12.7284 33.3953 12.201 33.6184 11.751 33.7772C11.9121 33.4466 12.1107 33.0722 12.3252 32.6702C12.3401 32.6423 12.355 32.6144 12.37 32.5863C12.6741 32.0169 13.0045 31.3982 13.2291 30.8755C13.3457 30.6042 13.457 30.3067 13.5138 30.0242C13.5552 29.818 13.6463 29.2733 13.2901 28.8128C11.8501 26.9507 11 24.6419 11 22.1403C11 16.015 16.121 11 22.5 11C28.879 11 34 16.015 34 22.1403ZM10.8578 33.9992C10.8581 33.9988 10.8637 33.9989 10.8736 34.0001C10.8625 34.0001 10.8575 33.9995 10.8578 33.9992ZM11.396 34.6642C11.3951 34.694 11.3911 34.6983 11.3958 34.6654C11.3959 34.665 11.3959 34.6646 11.396 34.6642Z" stroke="#0030AA" stroke-width="2"/>
<path d="M20.608 24.044H18.148L17.62 26H15.94L18.436 18.164H20.392L22.876 26H21.136L20.608 24.044ZM20.272 22.772L20.056 21.968C19.96 21.616 19.816 21.064 19.624 20.312L19.396 19.424H19.348C19.108 20.456 18.896 21.304 18.712 21.968L18.496 22.772H20.272Z" fill="#00D4FF"/>
<path d="M25.1123 26.144C24.5843 26.144 24.1563 25.976 23.8283 25.64C23.5083 25.304 23.3483 24.88 23.3483 24.368C23.3483 23.736 23.6163 23.248 24.1523 22.904C24.6883 22.552 25.5483 22.312 26.7323 22.184C26.7083 21.544 26.3803 21.224 25.7483 21.224C25.5003 21.224 25.2483 21.272 24.9923 21.368C24.7363 21.464 24.4563 21.6 24.1523 21.776L23.5643 20.696C24.4043 20.176 25.2363 19.916 26.0603 19.916C26.8203 19.916 27.3963 20.14 27.7883 20.588C28.1803 21.028 28.3763 21.688 28.3763 22.568V26H27.0323L26.9123 25.376H26.8763C26.2843 25.888 25.6963 26.144 25.1123 26.144ZM25.6523 24.872C25.8523 24.872 26.0323 24.828 26.1923 24.74C26.3603 24.644 26.5403 24.504 26.7323 24.32V23.18C26.0843 23.268 25.6203 23.4 25.3403 23.576C25.0603 23.752 24.9203 23.972 24.9203 24.236C24.9203 24.444 24.9843 24.604 25.1123 24.716C25.2403 24.82 25.4203 24.872 25.6523 24.872Z" fill="#0030AA"/>
</svg>
