<svg width="211" height="183" viewBox="0 0 211 183" fill="none" xmlns="http://www.w3.org/2000/svg">
<ellipse cx="93.1265" cy="91.5" rx="93.1265" ry="91.5" fill="#EBFDFF"/>
<path d="M130.247 121.573H143.272V166.084L136.759 171.123L130.247 175.322V121.573Z" fill="#07287C"/>
<rect x="61.2158" y="102.058" width="149.784" height="9.11162" rx="4.55581" fill="#3C63C6"/>
<path d="M87.2651 111.169H184.049C184.049 117.46 178.949 122.559 172.659 122.559H98.6547C92.3644 122.559 87.2651 117.46 87.2651 111.169Z" fill="#133A9B"/>
<path d="M65.123 54.5524C65.123 43.5067 74.0774 34.5524 85.123 34.5524H185.79C196.835 34.5524 205.79 43.5067 205.79 54.5524V102.378H65.123V54.5524Z" fill="#0030AA"/>
<path d="M65.123 54.5524C65.123 43.5067 74.0774 34.5524 85.123 34.5524H107.642C118.687 34.5524 127.642 43.5067 127.642 54.5524V102.378H65.123V54.5524Z" fill="#07287C"/>
<path d="M81.6222 53.5903C82.6738 47.2287 89.414 43.4781 95.3857 45.9313L128.042 59.347L128.042 96.9324L77.0358 81.3331L81.6222 53.5903Z" fill="#09B4D7"/>
<path d="M76.1938 68.7775C76.1938 63.2547 80.671 58.7775 86.1938 58.7775H128.042V102.058H76.1938V68.7775Z" fill="#00D4FF"/>
<path d="M85.4116 73.5839L102.118 88.3902L118.825 73.5839" stroke="#068BA6" stroke-width="2" stroke-linecap="round"/>
<ellipse cx="151.737" cy="59.507" rx="4.55864" ry="4.47902" fill="#07287C"/>
<rect width="2.98162" height="37.7409" transform="matrix(0.906956 0.42124 -0.434388 0.900733 164.875 26.8741)" fill="#07287C"/>
<rect width="24.3977" height="15.8556" transform="matrix(0.907395 0.420327 -0.435329 0.900294 167.638 28.1437)" fill="#12FF71"/>
</svg>
